<svg xmlns="http://www.w3.org/2000/svg" xmlns:xlink="http://www.w3.org/1999/xlink" width="600" zoomAndPan="magnify" viewBox="0 0 450 149.999998" height="200" preserveAspectRatio="xMidYMid meet" version="1.0"><defs><g/><clipPath id="ca3bff0f34"><path d="M 160.601562 7.167969 L 289.601562 7.167969 L 289.601562 74.667969 L 160.601562 74.667969 Z M 160.601562 7.167969 " clip-rule="nonzero"/></clipPath></defs><g clip-path="url(#ca3bff0f34)"><path fill="#b2a38d" d="M 213.550781 35.53125 L 224.996094 24.085938 L 236.441406 35.53125 L 236.441406 62.121094 L 265.054688 62.121094 L 265.054688 34.351562 L 237.871094 7.167969 L 224.996094 20.042969 L 212.121094 7.167969 L 184.9375 34.351562 L 184.9375 62.125 L 213.550781 62.125 Z M 237.871094 11.214844 L 262.191406 35.53125 L 262.191406 59.257812 L 239.300781 59.257812 L 239.300781 34.351562 L 227.015625 22.066406 Z M 210.691406 59.261719 L 187.800781 59.261719 L 187.800781 35.53125 L 212.121094 11.214844 L 222.976562 22.066406 L 210.691406 34.351562 Z M 289.375 72.136719 L 289.375 74.996094 L 160.617188 74.996094 L 160.617188 72.136719 Z M 289.375 72.136719 " fill-opacity="1" fill-rule="nonzero"/></g><g fill="#141515" fill-opacity="1"><g transform="translate(127.317119, 93.85827)"><g><path d="M 1.171875 -9.734375 L 5.140625 -9.734375 C 5.722656 -9.734375 6.242188 -9.648438 6.703125 -9.484375 C 7.160156 -9.328125 7.550781 -9.097656 7.875 -8.796875 C 8.195312 -8.503906 8.441406 -8.148438 8.609375 -7.734375 C 8.785156 -7.328125 8.875 -6.875 8.875 -6.375 L 8.875 -6.34375 C 8.875 -5.78125 8.769531 -5.285156 8.5625 -4.859375 C 8.363281 -4.429688 8.082031 -4.070312 7.71875 -3.78125 C 7.363281 -3.488281 6.945312 -3.269531 6.46875 -3.125 C 5.988281 -2.988281 5.476562 -2.921875 4.9375 -2.921875 L 3.3125 -2.921875 L 3.3125 0 L 1.171875 0 Z M 5 -4.828125 C 5.539062 -4.828125 5.957031 -4.96875 6.25 -5.25 C 6.550781 -5.53125 6.703125 -5.878906 6.703125 -6.296875 L 6.703125 -6.328125 C 6.703125 -6.804688 6.546875 -7.171875 6.234375 -7.421875 C 5.921875 -7.671875 5.5 -7.796875 4.96875 -7.796875 L 3.3125 -7.796875 L 3.3125 -4.828125 Z M 5 -4.828125 "/></g></g></g><g fill="#141515" fill-opacity="1"><g transform="translate(137.430194, 93.85827)"><g><path d="M 5.890625 0.171875 C 5.140625 0.171875 4.445312 0.0390625 3.8125 -0.21875 C 3.1875 -0.488281 2.644531 -0.847656 2.1875 -1.296875 C 1.726562 -1.742188 1.367188 -2.269531 1.109375 -2.875 C 0.859375 -3.488281 0.734375 -4.144531 0.734375 -4.84375 L 0.734375 -4.859375 C 0.734375 -5.554688 0.863281 -6.207031 1.125 -6.8125 C 1.382812 -7.425781 1.742188 -7.960938 2.203125 -8.421875 C 2.660156 -8.878906 3.207031 -9.238281 3.84375 -9.5 C 4.476562 -9.769531 5.171875 -9.90625 5.921875 -9.90625 C 6.671875 -9.90625 7.359375 -9.769531 7.984375 -9.5 C 8.617188 -9.238281 9.164062 -8.882812 9.625 -8.4375 C 10.082031 -7.988281 10.4375 -7.457031 10.6875 -6.84375 C 10.945312 -6.238281 11.078125 -5.585938 11.078125 -4.890625 L 11.078125 -4.859375 C 11.078125 -4.171875 10.945312 -3.519531 10.6875 -2.90625 C 10.425781 -2.300781 10.066406 -1.769531 9.609375 -1.3125 C 9.148438 -0.851562 8.601562 -0.488281 7.96875 -0.21875 C 7.332031 0.0390625 6.640625 0.171875 5.890625 0.171875 Z M 5.921875 -1.8125 C 6.347656 -1.8125 6.738281 -1.890625 7.09375 -2.046875 C 7.457031 -2.203125 7.765625 -2.414062 8.015625 -2.6875 C 8.273438 -2.96875 8.476562 -3.289062 8.625 -3.65625 C 8.769531 -4.03125 8.84375 -4.425781 8.84375 -4.84375 L 8.84375 -4.859375 C 8.84375 -5.285156 8.769531 -5.679688 8.625 -6.046875 C 8.476562 -6.421875 8.273438 -6.742188 8.015625 -7.015625 C 7.753906 -7.296875 7.441406 -7.515625 7.078125 -7.671875 C 6.710938 -7.835938 6.316406 -7.921875 5.890625 -7.921875 C 5.460938 -7.921875 5.066406 -7.84375 4.703125 -7.6875 C 4.347656 -7.53125 4.039062 -7.3125 3.78125 -7.03125 C 3.53125 -6.757812 3.332031 -6.4375 3.1875 -6.0625 C 3.039062 -5.695312 2.96875 -5.304688 2.96875 -4.890625 L 2.96875 -4.859375 C 2.96875 -4.441406 3.039062 -4.046875 3.1875 -3.671875 C 3.332031 -3.304688 3.535156 -2.984375 3.796875 -2.703125 C 4.066406 -2.429688 4.378906 -2.210938 4.734375 -2.046875 C 5.085938 -1.890625 5.484375 -1.8125 5.921875 -1.8125 Z M 5.921875 -1.8125 "/></g></g></g><g fill="#141515" fill-opacity="1"><g transform="translate(150.074907, 93.85827)"><g><path d="M 1.171875 -9.734375 L 4.96875 -9.734375 C 5.726562 -9.734375 6.425781 -9.609375 7.0625 -9.359375 C 7.695312 -9.117188 8.242188 -8.78125 8.703125 -8.34375 C 9.160156 -7.90625 9.515625 -7.390625 9.765625 -6.796875 C 10.015625 -6.210938 10.140625 -5.578125 10.140625 -4.890625 L 10.140625 -4.859375 C 10.140625 -4.179688 10.015625 -3.546875 9.765625 -2.953125 C 9.515625 -2.359375 9.160156 -1.84375 8.703125 -1.40625 C 8.242188 -0.96875 7.695312 -0.625 7.0625 -0.375 C 6.425781 -0.125 5.726562 0 4.96875 0 L 1.171875 0 Z M 3.3125 -7.796875 L 3.3125 -1.9375 L 4.96875 -1.9375 C 5.40625 -1.9375 5.800781 -2.003906 6.15625 -2.140625 C 6.519531 -2.273438 6.828125 -2.472656 7.078125 -2.734375 C 7.335938 -2.992188 7.539062 -3.300781 7.6875 -3.65625 C 7.832031 -4.007812 7.90625 -4.40625 7.90625 -4.84375 L 7.90625 -4.859375 C 7.90625 -5.285156 7.832031 -5.679688 7.6875 -6.046875 C 7.539062 -6.410156 7.335938 -6.722656 7.078125 -6.984375 C 6.828125 -7.242188 6.519531 -7.441406 6.15625 -7.578125 C 5.800781 -7.722656 5.40625 -7.796875 4.96875 -7.796875 Z M 3.3125 -7.796875 "/></g></g></g><g fill="#141515" fill-opacity="1"><g transform="translate(161.773732, 93.85827)"><g><path d="M 1.171875 -9.734375 L 8.515625 -9.734375 L 8.515625 -7.828125 L 3.296875 -7.828125 L 3.296875 -5.859375 L 7.890625 -5.859375 L 7.890625 -3.953125 L 3.296875 -3.953125 L 3.296875 -1.90625 L 8.578125 -1.90625 L 8.578125 0 L 1.171875 0 Z M 1.171875 -9.734375 "/></g></g></g><g fill="#141515" fill-opacity="1"><g transform="translate(171.914627, 93.85827)"><g><path d="M 1.171875 -9.734375 L 5.625 -9.734375 C 6.851562 -9.734375 7.796875 -9.40625 8.453125 -8.75 C 9.015625 -8.1875 9.296875 -7.441406 9.296875 -6.515625 L 9.296875 -6.5 C 9.296875 -5.707031 9.101562 -5.0625 8.71875 -4.5625 C 8.332031 -4.070312 7.828125 -3.707031 7.203125 -3.46875 L 9.578125 0 L 7.078125 0 L 5 -3.109375 L 3.3125 -3.109375 L 3.3125 0 L 1.171875 0 Z M 5.484375 -5 C 6.003906 -5 6.40625 -5.125 6.6875 -5.375 C 6.976562 -5.625 7.125 -5.960938 7.125 -6.390625 L 7.125 -6.40625 C 7.125 -6.875 6.972656 -7.222656 6.671875 -7.453125 C 6.378906 -7.679688 5.96875 -7.796875 5.4375 -7.796875 L 3.3125 -7.796875 L 3.3125 -5 Z M 5.484375 -5 "/></g></g></g><g fill="#141515" fill-opacity="1"><g transform="translate(182.792751, 93.85827)"><g><path d="M 1.171875 -9.734375 L 8.515625 -9.734375 L 8.515625 -7.828125 L 3.296875 -7.828125 L 3.296875 -5.859375 L 7.890625 -5.859375 L 7.890625 -3.953125 L 3.296875 -3.953125 L 3.296875 -1.90625 L 8.578125 -1.90625 L 8.578125 0 L 1.171875 0 Z M 1.171875 -9.734375 "/></g></g></g><g fill="#141515" fill-opacity="1"><g transform="translate(192.933646, 93.85827)"><g/></g></g><g fill="#141515" fill-opacity="1"><g transform="translate(197.92779, 93.85827)"><g><path d="M 1.171875 -9.734375 L 3.3125 -9.734375 L 3.3125 -1.953125 L 8.15625 -1.953125 L 8.15625 0 L 1.171875 0 Z M 1.171875 -9.734375 "/></g></g></g><g fill="#141515" fill-opacity="1"><g transform="translate(207.359267, 93.85827)"><g><path d="M 4.5 -9.796875 L 6.484375 -9.796875 L 10.65625 0 L 8.40625 0 L 7.515625 -2.1875 L 3.40625 -2.1875 L 2.515625 0 L 0.328125 0 Z M 6.765625 -4.078125 L 5.46875 -7.234375 L 4.171875 -4.078125 Z M 6.765625 -4.078125 "/></g></g></g><g fill="#141515" fill-opacity="1"><g transform="translate(219.169374, 93.85827)"><g/></g></g><g fill="#141515" fill-opacity="1"><g transform="translate(224.163518, 93.85827)"><g><path d="M 5.734375 0.171875 C 5.015625 0.171875 4.347656 0.0390625 3.734375 -0.21875 C 3.128906 -0.476562 2.601562 -0.832031 2.15625 -1.28125 C 1.707031 -1.726562 1.359375 -2.257812 1.109375 -2.875 C 0.859375 -3.488281 0.734375 -4.144531 0.734375 -4.84375 L 0.734375 -4.859375 C 0.734375 -5.554688 0.859375 -6.207031 1.109375 -6.8125 C 1.359375 -7.425781 1.707031 -7.960938 2.15625 -8.421875 C 2.601562 -8.878906 3.132812 -9.238281 3.75 -9.5 C 4.375 -9.769531 5.0625 -9.90625 5.8125 -9.90625 C 6.269531 -9.90625 6.6875 -9.863281 7.0625 -9.78125 C 7.4375 -9.707031 7.773438 -9.609375 8.078125 -9.484375 C 8.378906 -9.359375 8.660156 -9.203125 8.921875 -9.015625 C 9.179688 -8.828125 9.425781 -8.625 9.65625 -8.40625 L 8.28125 -6.828125 C 7.90625 -7.171875 7.519531 -7.4375 7.125 -7.625 C 6.726562 -7.820312 6.285156 -7.921875 5.796875 -7.921875 C 5.390625 -7.921875 5.007812 -7.84375 4.65625 -7.6875 C 4.3125 -7.53125 4.015625 -7.3125 3.765625 -7.03125 C 3.515625 -6.757812 3.316406 -6.4375 3.171875 -6.0625 C 3.035156 -5.695312 2.96875 -5.304688 2.96875 -4.890625 L 2.96875 -4.859375 C 2.96875 -4.441406 3.035156 -4.046875 3.171875 -3.671875 C 3.316406 -3.304688 3.507812 -2.984375 3.75 -2.703125 C 4 -2.429688 4.296875 -2.210938 4.640625 -2.046875 C 4.992188 -1.890625 5.378906 -1.8125 5.796875 -1.8125 C 6.359375 -1.8125 6.828125 -1.910156 7.203125 -2.109375 C 7.585938 -2.316406 7.972656 -2.597656 8.359375 -2.953125 L 9.71875 -1.578125 C 9.46875 -1.304688 9.207031 -1.0625 8.9375 -0.84375 C 8.664062 -0.632812 8.367188 -0.453125 8.046875 -0.296875 C 7.734375 -0.140625 7.382812 -0.0234375 7 0.046875 C 6.625 0.128906 6.203125 0.171875 5.734375 0.171875 Z M 5.734375 0.171875 "/></g></g></g><g fill="#141515" fill-opacity="1"><g transform="translate(235.25029, 93.85827)"><g><path d="M 4.5 -9.796875 L 6.484375 -9.796875 L 10.65625 0 L 8.40625 0 L 7.515625 -2.1875 L 3.40625 -2.1875 L 2.515625 0 L 0.328125 0 Z M 6.765625 -4.078125 L 5.46875 -7.234375 L 4.171875 -4.078125 Z M 6.765625 -4.078125 "/></g></g></g><g fill="#141515" fill-opacity="1"><g transform="translate(247.060398, 93.85827)"><g><path d="M 0.328125 -9.734375 L 2.703125 -9.734375 L 5.25 -2.875 L 7.78125 -9.734375 L 10.09375 -9.734375 L 6.15625 0.0625 L 4.265625 0.0625 Z M 0.328125 -9.734375 "/></g></g></g><g fill="#141515" fill-opacity="1"><g transform="translate(258.314094, 93.85827)"><g><path d="M 4.5 -9.796875 L 6.484375 -9.796875 L 10.65625 0 L 8.40625 0 L 7.515625 -2.1875 L 3.40625 -2.1875 L 2.515625 0 L 0.328125 0 Z M 6.765625 -4.078125 L 5.46875 -7.234375 L 4.171875 -4.078125 Z M 6.765625 -4.078125 "/></g></g></g><g fill="#141515" fill-opacity="1"><g transform="translate(270.124201, 93.85827)"><g><path d="M 1.171875 -9.734375 L 3.3125 -9.734375 L 3.3125 -1.953125 L 8.15625 -1.953125 L 8.15625 0 L 1.171875 0 Z M 1.171875 -9.734375 "/></g></g></g><g fill="#141515" fill-opacity="1"><g transform="translate(279.555677, 93.85827)"><g><path d="M 1.171875 -9.734375 L 3.3125 -9.734375 L 3.3125 -1.953125 L 8.15625 -1.953125 L 8.15625 0 L 1.171875 0 Z M 1.171875 -9.734375 "/></g></g></g><g fill="#141515" fill-opacity="1"><g transform="translate(288.987153, 93.85827)"><g><path d="M 4.5 -9.796875 L 6.484375 -9.796875 L 10.65625 0 L 8.40625 0 L 7.515625 -2.1875 L 3.40625 -2.1875 L 2.515625 0 L 0.328125 0 Z M 6.765625 -4.078125 L 5.46875 -7.234375 L 4.171875 -4.078125 Z M 6.765625 -4.078125 "/></g></g></g><g fill="#141515" fill-opacity="1"><g transform="translate(300.797261, 93.85827)"><g><path d="M 1.171875 -9.734375 L 5.625 -9.734375 C 6.851562 -9.734375 7.796875 -9.40625 8.453125 -8.75 C 9.015625 -8.1875 9.296875 -7.441406 9.296875 -6.515625 L 9.296875 -6.5 C 9.296875 -5.707031 9.101562 -5.0625 8.71875 -4.5625 C 8.332031 -4.070312 7.828125 -3.707031 7.203125 -3.46875 L 9.578125 0 L 7.078125 0 L 5 -3.109375 L 3.3125 -3.109375 L 3.3125 0 L 1.171875 0 Z M 5.484375 -5 C 6.003906 -5 6.40625 -5.125 6.6875 -5.375 C 6.976562 -5.625 7.125 -5.960938 7.125 -6.390625 L 7.125 -6.40625 C 7.125 -6.875 6.972656 -7.222656 6.671875 -7.453125 C 6.378906 -7.679688 5.96875 -7.796875 5.4375 -7.796875 L 3.3125 -7.796875 L 3.3125 -5 Z M 5.484375 -5 "/></g></g></g><g fill="#141515" fill-opacity="1"><g transform="translate(311.675384, 93.85827)"><g><path d="M 4.5 -9.796875 L 6.484375 -9.796875 L 10.65625 0 L 8.40625 0 L 7.515625 -2.1875 L 3.40625 -2.1875 L 2.515625 0 L 0.328125 0 Z M 6.765625 -4.078125 L 5.46875 -7.234375 L 4.171875 -4.078125 Z M 6.765625 -4.078125 "/></g></g></g><g fill="#b2a38d" fill-opacity="1"><g transform="translate(169.891204, 111.767983)"><g><path d="M 3.609375 -7.109375 L 4.359375 -7.109375 L 7.578125 0 L 6.71875 0 L 5.890625 -1.875 L 2.046875 -1.875 L 1.21875 0 L 0.390625 0 Z M 5.578125 -2.578125 L 3.984375 -6.1875 L 2.359375 -2.578125 Z M 5.578125 -2.578125 "/></g></g></g><g fill="#b2a38d" fill-opacity="1"><g transform="translate(180.800765, 111.767983)"><g><path d="M 1 -7.0625 L 3.640625 -7.0625 C 4.035156 -7.0625 4.394531 -7.007812 4.71875 -6.90625 C 5.050781 -6.800781 5.332031 -6.648438 5.5625 -6.453125 C 5.800781 -6.265625 5.976562 -6.03125 6.09375 -5.75 C 6.21875 -5.476562 6.28125 -5.171875 6.28125 -4.828125 L 6.28125 -4.796875 C 6.28125 -4.421875 6.207031 -4.085938 6.0625 -3.796875 C 5.914062 -3.515625 5.71875 -3.273438 5.46875 -3.078125 C 5.21875 -2.878906 4.921875 -2.734375 4.578125 -2.640625 C 4.242188 -2.546875 3.890625 -2.5 3.515625 -2.5 L 1.796875 -2.5 L 1.796875 0 L 1 0 Z M 3.546875 -3.21875 C 3.835938 -3.21875 4.097656 -3.253906 4.328125 -3.328125 C 4.566406 -3.398438 4.769531 -3.503906 4.9375 -3.640625 C 5.113281 -3.785156 5.25 -3.953125 5.34375 -4.140625 C 5.4375 -4.328125 5.484375 -4.539062 5.484375 -4.78125 L 5.484375 -4.796875 C 5.484375 -5.296875 5.304688 -5.675781 4.953125 -5.9375 C 4.609375 -6.195312 4.148438 -6.328125 3.578125 -6.328125 L 1.796875 -6.328125 L 1.796875 -3.21875 Z M 3.546875 -3.21875 "/></g></g></g><g fill="#b2a38d" fill-opacity="1"><g transform="translate(190.479376, 111.767983)"><g><path d="M 3.609375 -7.109375 L 4.359375 -7.109375 L 7.578125 0 L 6.71875 0 L 5.890625 -1.875 L 2.046875 -1.875 L 1.21875 0 L 0.390625 0 Z M 5.578125 -2.578125 L 3.984375 -6.1875 L 2.359375 -2.578125 Z M 5.578125 -2.578125 "/></g></g></g><g fill="#b2a38d" fill-opacity="1"><g transform="translate(201.388936, 111.767983)"><g><path d="M 1 -7.0625 L 4.03125 -7.0625 C 4.46875 -7.0625 4.859375 -7 5.203125 -6.875 C 5.546875 -6.75 5.828125 -6.578125 6.046875 -6.359375 C 6.222656 -6.179688 6.359375 -5.972656 6.453125 -5.734375 C 6.546875 -5.503906 6.59375 -5.25 6.59375 -4.96875 L 6.59375 -4.953125 C 6.59375 -4.648438 6.546875 -4.382812 6.453125 -4.15625 C 6.359375 -3.925781 6.222656 -3.722656 6.046875 -3.546875 C 5.878906 -3.378906 5.675781 -3.238281 5.4375 -3.125 C 5.207031 -3.007812 4.953125 -2.929688 4.671875 -2.890625 L 6.84375 0 L 5.859375 0 L 3.8125 -2.75 L 1.796875 -2.75 L 1.796875 0 L 1 0 Z M 3.96875 -3.46875 C 4.226562 -3.46875 4.46875 -3.5 4.6875 -3.5625 C 4.914062 -3.625 5.109375 -3.71875 5.265625 -3.84375 C 5.429688 -3.96875 5.554688 -4.117188 5.640625 -4.296875 C 5.734375 -4.484375 5.78125 -4.691406 5.78125 -4.921875 L 5.78125 -4.9375 C 5.78125 -5.375 5.617188 -5.710938 5.296875 -5.953125 C 4.984375 -6.203125 4.546875 -6.328125 3.984375 -6.328125 L 1.796875 -6.328125 L 1.796875 -3.46875 Z M 3.96875 -3.46875 "/></g></g></g><g fill="#b2a38d" fill-opacity="1"><g transform="translate(211.622483, 111.767983)"><g><path d="M 2.84375 -6.328125 L 0.453125 -6.328125 L 0.453125 -7.0625 L 6.015625 -7.0625 L 6.015625 -6.328125 L 3.640625 -6.328125 L 3.640625 0 L 2.84375 0 Z M 2.84375 -6.328125 "/></g></g></g><g fill="#b2a38d" fill-opacity="1"><g transform="translate(221.028679, 111.767983)"><g><path d="M 3.609375 -7.109375 L 4.359375 -7.109375 L 7.578125 0 L 6.71875 0 L 5.890625 -1.875 L 2.046875 -1.875 L 1.21875 0 L 0.390625 0 Z M 5.578125 -2.578125 L 3.984375 -6.1875 L 2.359375 -2.578125 Z M 5.578125 -2.578125 "/></g></g></g><g fill="#b2a38d" fill-opacity="1"><g transform="translate(231.93824, 111.767983)"><g><path d="M 1 -7.0625 L 1.8125 -7.0625 L 4.375 -3.203125 L 6.953125 -7.0625 L 7.765625 -7.0625 L 7.765625 0 L 6.96875 0 L 6.96875 -5.71875 L 4.390625 -1.9375 L 4.34375 -1.9375 L 1.78125 -5.71875 L 1.78125 0 L 1 0 Z M 1 -7.0625 "/></g></g></g><g fill="#b2a38d" fill-opacity="1"><g transform="translate(243.63481, 111.767983)"><g><path d="M 1 -7.0625 L 6.109375 -7.0625 L 6.109375 -6.34375 L 1.796875 -6.34375 L 1.796875 -3.921875 L 5.65625 -3.921875 L 5.65625 -3.203125 L 1.796875 -3.203125 L 1.796875 -0.734375 L 6.15625 -0.734375 L 6.15625 0 L 1 0 Z M 1 -7.0625 "/></g></g></g><g fill="#b2a38d" fill-opacity="1"><g transform="translate(253.333609, 111.767983)"><g><path d="M 1 -7.0625 L 1.75 -7.0625 L 6.203125 -1.40625 L 6.203125 -7.0625 L 6.96875 -7.0625 L 6.96875 0 L 6.34375 0 L 1.78125 -5.796875 L 1.78125 0 L 1 0 Z M 1 -7.0625 "/></g></g></g><g fill="#b2a38d" fill-opacity="1"><g transform="translate(264.243169, 111.767983)"><g><path d="M 2.84375 -6.328125 L 0.453125 -6.328125 L 0.453125 -7.0625 L 6.015625 -7.0625 L 6.015625 -6.328125 L 3.640625 -6.328125 L 3.640625 0 L 2.84375 0 Z M 2.84375 -6.328125 "/></g></g></g><g fill="#b2a38d" fill-opacity="1"><g transform="translate(273.649365, 111.767983)"><g><path d="M 3.421875 0.09375 C 2.859375 0.09375 2.34375 0.00390625 1.875 -0.171875 C 1.40625 -0.359375 0.957031 -0.644531 0.53125 -1.03125 L 1.03125 -1.609375 C 1.394531 -1.273438 1.765625 -1.023438 2.140625 -0.859375 C 2.523438 -0.691406 2.960938 -0.609375 3.453125 -0.609375 C 3.929688 -0.609375 4.3125 -0.722656 4.59375 -0.953125 C 4.882812 -1.179688 5.03125 -1.46875 5.03125 -1.8125 L 5.03125 -1.84375 C 5.03125 -2 5 -2.140625 4.9375 -2.265625 C 4.882812 -2.398438 4.789062 -2.519531 4.65625 -2.625 C 4.53125 -2.738281 4.347656 -2.835938 4.109375 -2.921875 C 3.867188 -3.015625 3.5625 -3.097656 3.1875 -3.171875 C 2.78125 -3.265625 2.425781 -3.367188 2.125 -3.484375 C 1.832031 -3.597656 1.585938 -3.734375 1.390625 -3.890625 C 1.191406 -4.054688 1.046875 -4.242188 0.953125 -4.453125 C 0.859375 -4.671875 0.8125 -4.925781 0.8125 -5.21875 L 0.8125 -5.234375 C 0.8125 -5.515625 0.867188 -5.769531 0.984375 -6 C 1.097656 -6.238281 1.257812 -6.441406 1.46875 -6.609375 C 1.675781 -6.785156 1.921875 -6.921875 2.203125 -7.015625 C 2.492188 -7.117188 2.804688 -7.171875 3.140625 -7.171875 C 3.660156 -7.171875 4.113281 -7.097656 4.5 -6.953125 C 4.882812 -6.804688 5.257812 -6.585938 5.625 -6.296875 L 5.15625 -5.6875 C 4.820312 -5.957031 4.488281 -6.148438 4.15625 -6.265625 C 3.820312 -6.390625 3.476562 -6.453125 3.125 -6.453125 C 2.65625 -6.453125 2.285156 -6.34375 2.015625 -6.125 C 1.742188 -5.90625 1.609375 -5.632812 1.609375 -5.3125 L 1.609375 -5.296875 C 1.609375 -5.117188 1.632812 -4.960938 1.6875 -4.828125 C 1.75 -4.703125 1.847656 -4.582031 1.984375 -4.46875 C 2.128906 -4.363281 2.328125 -4.265625 2.578125 -4.171875 C 2.828125 -4.078125 3.144531 -3.992188 3.53125 -3.921875 C 4.320312 -3.742188 4.898438 -3.5 5.265625 -3.1875 C 5.640625 -2.875 5.828125 -2.453125 5.828125 -1.921875 L 5.828125 -1.890625 C 5.828125 -1.585938 5.765625 -1.3125 5.640625 -1.0625 C 5.523438 -0.820312 5.359375 -0.613281 5.140625 -0.4375 C 4.929688 -0.269531 4.679688 -0.140625 4.390625 -0.046875 C 4.097656 0.046875 3.773438 0.09375 3.421875 0.09375 Z M 3.421875 0.09375 "/></g></g></g></svg>